<svg width="21" height="21" viewBox="0 0 21 21" fill="none" xmlns="http://www.w3.org/2000/svg">
<path d="M0.5 20.1999C0.499969 20.4761 0.723801 20.7 0.999944 20.7C1.27609 20.7 1.49997 20.4762 1.5 20.2001L0.5 20.1999ZM1.0004 16.5996L1.5004 16.5996L1.0004 16.5996ZM11.2 13.5C11.4761 13.5 11.7 13.2761 11.7 13C11.7 12.7239 11.4761 12.5 11.2 12.5V13.5ZM20.2 14.7C20.4761 14.7 20.7 14.4761 20.7 14.2C20.7 13.9239 20.4761 13.7 20.2 13.7V14.7ZM14.8 13.7C14.5239 13.7 14.3 13.9239 14.3 14.2C14.3 14.4761 14.5239 14.7 14.8 14.7V13.7ZM17 16.8999C17 17.176 17.2239 17.3999 17.5 17.3999C17.7761 17.3999 18 17.176 18 16.8999H17ZM18 11.4999C18 11.2237 17.7761 10.9999 17.5 10.9999C17.2239 10.9999 17 11.2237 17 11.4999H18ZM16.2445 0.563846C16.0036 0.428824 15.6989 0.51464 15.5638 0.755521C15.4288 0.996402 15.5146 1.30113 15.7555 1.43615L16.2445 0.563846ZM15.7555 7.76385C15.5146 7.89887 15.4288 8.2036 15.5638 8.44448C15.6989 8.68536 16.0036 8.77117 16.2445 8.63615L15.7555 7.76385ZM12.5 4.6C12.5 6.31208 11.1121 7.7 9.4 7.7V8.7C11.6644 8.7 13.5 6.86437 13.5 4.6H12.5ZM9.4 7.7C7.68792 7.7 6.3 6.31208 6.3 4.6H5.3C5.3 6.86437 7.13563 8.7 9.4 8.7V7.7ZM6.3 4.6C6.3 2.88792 7.68792 1.5 9.4 1.5V0.5C7.13563 0.5 5.3 2.33563 5.3 4.6H6.3ZM9.4 1.5C11.1121 1.5 12.5 2.88792 12.5 4.6H13.5C13.5 2.33563 11.6644 0.5 9.4 0.5V1.5ZM1.5 20.2001L1.5004 16.5996L0.500405 16.5995L0.5 20.1999L1.5 20.2001ZM4.6004 12.5C2.33622 12.5 0.500659 14.3353 0.500405 16.5995L1.5004 16.5996C1.5006 14.8877 2.88846 13.5 4.6004 13.5V12.5ZM4.6004 13.5H11.2V12.5H4.6004V13.5ZM20.2 13.7H17.5V14.7H20.2V13.7ZM17.5 13.7H14.8V14.7H17.5V13.7ZM18 16.8999V14.2H17V16.8999H18ZM18 14.2V11.4999H17V14.2H18ZM15.7555 1.43615C17.1025 2.19116 17.9 3.35526 17.9 4.6H18.9C18.9 2.89449 17.81 1.4414 16.2445 0.563846L15.7555 1.43615ZM17.9 4.6C17.9 5.84473 17.1025 7.00884 15.7555 7.76385L16.2445 8.63615C17.81 7.7586 18.9 6.30551 18.9 4.6H17.9Z" fill="black"/>
</svg>
