<svg width="21" height="18" viewBox="0 0 21 18" fill="none" xmlns="http://www.w3.org/2000/svg">
<path d="M18.5 12.4C18.5 12.6761 18.7239 12.9 19 12.9C19.2761 12.9 19.5 12.6761 19.5 12.4H18.5ZM1.7 12.4C1.7 12.6761 1.92386 12.9 2.2 12.9C2.47614 12.9 2.7 12.6761 2.7 12.4H1.7ZM4.3 1.5H16.9V0.5H4.3V1.5ZM18.5 3.03077V12.4H19.5V3.03077H18.5ZM2.7 12.4V3.03077H1.7V12.4H2.7ZM16.9 1.5C17.7996 1.5 18.5 2.20102 18.5 3.03077H19.5C19.5 1.6174 18.32 0.5 16.9 0.5V1.5ZM4.3 0.5C2.87999 0.5 1.7 1.6174 1.7 3.03077H2.7C2.7 2.20102 3.40041 1.5 4.3 1.5V0.5ZM2.2 13.5H19V12.5H2.2V13.5ZM19.7 14.2V15.4H20.7V14.2H19.7ZM19 16.1H2.2V17.1H19V16.1ZM1.5 15.4V14.2H0.5V15.4H1.5ZM2.2 16.1C1.8134 16.1 1.5 15.7866 1.5 15.4H0.5C0.5 16.3389 1.26112 17.1 2.2 17.1V16.1ZM19.7 15.4C19.7 15.7866 19.3866 16.1 19 16.1V17.1C19.9389 17.1 20.7 16.3389 20.7 15.4H19.7ZM19 13.5C19.3866 13.5 19.7 13.8134 19.7 14.2H20.7C20.7 13.2611 19.9389 12.5 19 12.5V13.5ZM2.2 12.5C1.26112 12.5 0.5 13.2611 0.5 14.2H1.5C1.5 13.8134 1.8134 13.5 2.2 13.5V12.5Z" fill="black"/>
</svg>
