<svg width="20" height="19" viewBox="0 0 20 19" fill="none" xmlns="http://www.w3.org/2000/svg">
<path d="M7.35294 13.6V15.7C7.35294 16.257 7.57605 16.7911 7.97319 17.1849C8.37032 17.5788 8.90895 17.8 9.47059 17.8H16.8824C17.444 17.8 17.9826 17.5788 18.3798 17.1849C18.7769 16.7911 19 16.257 19 15.7L19 3.1C19 2.54305 18.7769 2.0089 18.3798 1.61508C17.9826 1.22125 17.444 1 16.8824 1L9.47059 1C8.90895 1 8.37032 1.22125 7.97319 1.61508C7.57605 2.0089 7.35294 2.54305 7.35294 3.1V5.2M13.7059 9.4L1 9.4M1 9.4L4.17647 12.55M1 9.4L4.17647 6.25" stroke="black" stroke-linecap="round" stroke-linejoin="round"/>
</svg>
